<?xml version="1.0" encoding="UTF-8" standalone="no"?>
<svg
   xmlns:dc="http://purl.org/dc/elements/1.1/"
   xmlns:cc="http://creativecommons.org/ns#"
   xmlns:rdf="http://www.w3.org/1999/02/22-rdf-syntax-ns#"
   xmlns:svg="http://www.w3.org/2000/svg"
   xmlns="http://www.w3.org/2000/svg"
   xmlns:sodipodi="http://sodipodi.sourceforge.net/DTD/sodipodi-0.dtd"
   xmlns:inkscape="http://www.inkscape.org/namespaces/inkscape"
   inkscape:export-ydpi="47.965061"
   inkscape:export-xdpi="47.965061"
   inkscape:export-filename="/Users/maciej/projects/cpp-effects-temp/doc/img/logo-200.png"
   width="210mm"
   height="297mm"
   viewBox="0 0 210 297"
   version="1.1"
   id="svg8"
   inkscape:version="1.0beta2 (2b71d25, 2019-12-03)"
   sodipodi:docname="logo-inkscape.svg">
  <defs
     id="defs2" />
  <sodipodi:namedview
     id="base"
     pagecolor="#ffffff"
     bordercolor="#666666"
     borderopacity="1.0"
     inkscape:pageopacity="0.0"
     inkscape:pageshadow="2"
     inkscape:zoom="0.477845"
     inkscape:cx="441.26921"
     inkscape:cy="562.14866"
     inkscape:document-units="mm"
     inkscape:current-layer="layer1"
     inkscape:document-rotation="0"
     showgrid="false"
     inkscape:snap-page="false"
     inkscape:snap-center="false"
     inkscape:window-width="1440"
     inkscape:window-height="768"
     inkscape:window-x="0"
     inkscape:window-y="25"
     inkscape:window-maximized="0" />
  <metadata
     id="metadata5">
    <rdf:RDF>
      <cc:Work
         rdf:about="">
        <dc:format>image/svg+xml</dc:format>
        <dc:type
           rdf:resource="http://purl.org/dc/dcmitype/StillImage" />
        <dc:title />
      </cc:Work>
    </rdf:RDF>
  </metadata>
  <g
     inkscape:label="Layer 1"
     inkscape:groupmode="layer"
     id="layer1">
    <g
       id="g908"
       transform="translate(2.7472924,35.188651)"
       style="fill:#ff0066">
      <path
         inkscape:connector-curvature="0"
         d="m 80.454686,47.624461 c -4.368498,-0.42929 -8.885856,0.0595 -13.01525,1.59396 -1.234091,0.45857 -2.389881,1.10523 -3.584821,1.65784 -2.448777,1.55193 -5.024695,2.91941 -7.346334,4.65577 -1.038344,0.77658 -1.861685,1.81557 -2.666047,2.83254 -2.118511,2.67849 -4.015441,6.33524 -4.473533,9.76059 -0.146487,1.09536 -0.01992,2.21013 -0.02989,3.31519 0.338344,1.07122 0.509775,2.21031 1.015032,3.21366 2.095357,4.16101 6.713548,6.82821 11.119646,7.79715 1.049856,0.23088 2.133634,0.26386 3.20045,0.39579 1.011391,-0.049 2.030524,-0.0129 3.034173,-0.14705 1.706015,-0.22807 3.652245,-0.82375 5.173131,-1.64808 4.830844,-2.61837 6.41432,-3.49738 9.870066,-6.64331 0,0 -4.968459,2.0296 -4.968459,2.0296 v 0 c -0.468392,0.4229 -0.919094,0.86626 -1.405173,1.26871 -0.56991,0.47185 -2.4814,1.18637 -1.760315,1.35214 0.853096,0.19612 2.922108,-0.58327 2.324123,-1.22253 -0.607406,-0.64933 -1.585118,0.81713 -2.421747,1.11817 -2.492808,0.89697 -3.077688,0.76093 -5.740143,0.97665 -1.060341,-0.0987 -2.135021,-0.0964 -3.181019,-0.29625 -4.297064,-0.8212 -8.838065,-3.32403 -10.847843,-7.39018 -0.475194,-0.96141 -0.621723,-2.05279 -0.932584,-3.07919 0.01937,-1.06457 -0.09113,-2.13948 0.05812,-3.19372 0.484376,-3.42154 2.287191,-6.8369 4.456428,-9.47789 0.812789,-0.98955 1.980393,-1.67666 2.690196,-2.7425 0.179384,-0.26937 -0.640049,0.0964 -0.960073,0.14455 1.173668,-0.56904 2.304717,-1.23601 3.521001,-1.70713 3.808534,-1.47522 8.082568,-2.04304 12.103505,-1.24256 0,0 4.767365,-3.32192 4.767365,-3.32192 z"
         id="path855"
         style="fill:#ff0066;fill-opacity:1;stroke-width:0.264999;stroke-linecap:round;stroke-miterlimit:4;stroke-dasharray:none;stop-color:#000000" />
      <path
         inkscape:connector-curvature="0"
         d="m 69.227582,67.813041 c 0.581822,-0.15833 1.169067,-0.29793 1.745467,-0.47498 2.863554,-0.87961 5.66855,-1.95316 8.481661,-2.97775 3.437591,-1.25203 2.995715,-1.0855 6.502484,-2.31873 8.825471,-3.03604 18.138456,-4.05232 27.387616,-4.8133 4.65423,-0.34168 9.31798,-0.28301 13.97546,-0.0916 4.0837,0.164 8.08737,0.99208 12.03007,2.01673 3.8816,0.9094 7.63271,2.28682 11.34049,3.73458 0,0 4.51709,-3.03921 4.51709,-3.03921 v 0 c -3.77359,-1.37447 -7.56793,-2.70767 -11.45391,-3.73277 -3.94504,-0.94921 -7.90924,-1.87409 -11.96624,-2.19108 -4.88841,-0.28933 -9.79814,0.29379 -14.67674,0.51654 -9.16632,0.84652 -18.435921,1.72225 -27.243043,4.55298 -5.336926,1.84865 -10.602605,3.93327 -16.051882,5.43456 0,0 -4.588523,3.38401 -4.588523,3.38401 z"
         id="path857"
         style="fill:#ff0066;fill-opacity:1;stroke-width:0.264999;stroke-linecap:round;stroke-miterlimit:4;stroke-dasharray:none;stop-color:#000000" />
      <path
         inkscape:connector-curvature="0"
         d="m 88.304691,53.719491 c 0.354415,5.27611 0.964602,10.53059 1.430666,15.79776 0,0 4.63016,-2.42534 4.63016,-2.42534 v 0 c -0.7318,-5.27606 -1.391986,-10.61601 -1.002217,-15.94991 0,0 -5.058609,2.57749 -5.058609,2.57749 z"
         id="path861"
         style="fill:#ff0066;fill-opacity:1;stroke-width:0.264999;stroke-linecap:round;stroke-miterlimit:4;stroke-dasharray:none;stop-color:#000000" />
      <path
         inkscape:connector-curvature="0"
         d="m 75.764979,57.155101 c 0.415136,3.30393 0.907155,6.59244 1.633042,9.84305 0.315008,1.52549 0.692587,3.03702 1.06829,4.54839 0,0 4.970785,-2.71132 4.970785,-2.71132 v 0 c -0.481229,-1.45477 -0.9144,-2.92537 -1.23213,-4.42578 -0.774261,-3.22489 -1.409816,-6.51075 -1.359606,-9.84292 0,0 -5.080381,2.58858 -5.080381,2.58858 z"
         id="path865"
         style="fill:#ff0066;fill-opacity:1;stroke-width:0.264999;stroke-linecap:round;stroke-miterlimit:4;stroke-dasharray:none;stop-color:#000000" />
      <path
         inkscape:connector-curvature="0"
         d="m 120.58961,36.219721 c -3.91791,0.91291 -7.93805,1.7687 -11.98813,1.57238 -0.6797,-0.0329 -1.35136,-0.16156 -2.02704,-0.24234 -0.42051,-0.12487 -0.85448,-0.21112 -1.26153,-0.37461 -0.1963,-0.0789 -0.37672,-0.20231 -0.53214,-0.34583 -0.0323,-0.0298 0.0105,-0.0873 0.0157,-0.131 -1.58449,0.90484 -3.25805,1.66903 -4.75346,2.71454 -0.169246,0.11833 0.42392,0.0717 0.58686,0.19853 0.32124,0.25016 0.54995,0.60053 0.82493,0.90081 0.29721,0.56527 0.64513,1.10667 0.89164,1.69582 0.78831,1.88401 1.27001,3.87711 1.60446,5.88654 0.4974,2.98846 0.69117,5.85737 0.74594,8.88973 0.0295,1.63247 -0.0362,3.26529 -0.0544,4.89794 -0.20423,4.10026 -0.4412,8.25286 -1.612,12.21643 -0.39606,1.34078 -1.11031,3.13933 -2.00211,4.30573 -0.24215,0.31671 -0.59837,0.527 -0.89756,0.7905 0.51081,-3.44682 3.56852,-1.6243 5.25888,-2.61061 0.45881,-0.26772 0.86328,-0.62242 1.32357,-0.88759 0.61849,-0.35629 2.52968,-1.32283 1.90718,-0.97358 -0.87404,0.49037 -2.03692,0.61403 -2.66226,1.39721 -0.41867,0.52434 1.29926,-0.33585 1.94889,-0.50378 1.77074,-0.36902 3.47487,-0.14705 5.17409,0.37559 0,0 4.88866,-2.79439 4.88866,-2.79439 v 0 c -1.82712,-0.52775 -3.67193,-0.82148 -5.57471,-0.47279 -4.23173,0.99143 -2.16999,0.37835 -8.86104,3.4752 -0.68914,0.31896 -1.36702,0.67099 -2.00098,1.089 -0.52507,0.34621 -1.11181,0.67078 -1.46114,1.19378 -0.244606,0.36623 -0.640341,1.38712 -0.207706,1.30478 1.975806,-0.37602 3.711956,-1.54993 5.567926,-2.32489 0.21788,-0.2877 0.47759,-0.54805 0.65362,-0.86309 0.72142,-1.29108 1.23163,-2.88418 1.56031,-4.29526 0.92833,-3.98551 1.11353,-8.09349 1.24237,-12.16628 0.0788,-4.68665 0.16017,-9.35171 -0.39222,-14.01823 -0.25873,-2.18565 -0.6004,-4.09873 -1.29147,-6.16941 -0.21543,-0.6455 -0.52451,-1.25588 -0.78677,-1.88383 -0.26222,-0.38238 -0.48549,-0.79462 -0.78667,-1.14713 -0.19172,-0.22441 -0.40146,-0.66891 -0.67897,-0.56838 -0.53751,0.19473 -8.082892,2.34713 -4.41138,3.56977 0.47497,0.15816 0.97344,0.23421 1.46016,0.35133 0.72255,0.0771 1.4417,0.19943 2.16764,0.23139 3.90336,0.17147 7.80715,-0.50071 11.62192,-1.23928 0,0 4.79885,-3.04469 4.79885,-3.04469 z"
         id="path869"
         style="fill:#ff0066;fill-opacity:1;stroke-width:0.264999;stroke-linecap:round;stroke-miterlimit:4;stroke-dasharray:none;stop-color:#000000" />
      <path
         inkscape:connector-curvature="0"
         d="m 136.64349,42.916631 c -0.52793,-2.11909 -2.17036,-3.55389 -3.85515,-4.80346 -0.47318,-0.24814 -0.94419,-0.57598 -1.50836,-0.58683 -0.24194,-0.005 -0.50457,0.0213 -0.71069,0.14809 -1.83561,1.12905 -3.71537,2.21828 -5.37385,3.59438 -0.23958,0.19879 -0.81557,2.83524 -0.82253,2.86418 -0.93899,5.29978 -0.93483,10.71796 -1.07297,16.0845 -0.1412,5.20772 -0.47172,10.44269 -1.63241,15.53664 -0.23437,1.02856 -0.53811,2.04008 -0.80716,3.06012 -1.01331,3.3398 -2.68404,6.40762 -5.21529,8.83947 -0.99189,0.95293 -1.84802,1.49874 -2.95234,2.27591 -4.76287,2.57898 5.50223,-2.74904 1.59813,-1.17587 0,0 -4.43183,3.47951 -4.43183,3.47951 v 0 c 2.80637,-1.06725 5.34058,-2.72311 7.88324,-4.30479 1.10169,-0.83849 1.78651,-1.29839 2.77167,-2.32688 2.41243,-2.51855 3.98541,-5.61867 4.90025,-8.9666 0.25009,-1.02198 0.5283,-2.03748 0.75027,-3.06593 1.10975,-5.14176 1.61777,-10.40241 1.68687,-15.6574 0.11026,-5.38664 0.17733,-10.84065 1.42481,-16.10973 0.17548,-0.54297 0.31492,-1.09895 0.52645,-1.62892 0.1563,-0.39159 0.97953,-1.24168 0.57369,-1.12733 -1.53649,0.43291 -2.82515,1.48945 -4.26973,2.1687 -0.20031,0.0942 0.31395,-0.33854 0.52426,-0.40754 0.47331,-0.1553 1.03318,0.16066 1.43102,0.31487 1.62352,1.0881 3.23965,2.40644 3.46963,4.4802 0,0 5.11202,-2.68529 5.11202,-2.68529 z"
         id="path875"
         style="fill:#ff0066;fill-opacity:1;stroke-width:0.264999;stroke-linecap:round;stroke-miterlimit:4;stroke-dasharray:none;stop-color:#000000" />
      <path
         inkscape:connector-curvature="0"
         d="m 152.99422,44.345881 c -0.91834,-1.36621 -1.94122,-2.68818 -3.22245,-3.73719 -0.89253,-0.73076 -1.18994,-0.84299 -2.16263,-1.38414 -0.98406,-0.40946 -1.92677,-0.43747 -2.86322,0.13095 -5.00936,3.04064 -5.04299,2.21878 -6.90389,5.78675 -1.25031,3.06677 -1.55699,6.39151 -1.84618,9.65953 -0.24314,3.12122 -0.59214,6.23157 -0.92692,9.3438 -0.33026,3.17973 -0.72983,6.35263 -1.18318,9.51703 -0.59365,3.16847 -1.17953,6.34248 -2.09909,9.435 -0.81593,2.36078 -2.26314,4.38732 -3.86564,6.27127 -0.92963,1.18155 -2.04779,2.1956 -3.13455,3.22866 -0.16305,0.13528 -0.32011,0.27813 -0.48917,0.40584 -0.0134,0.0101 -0.95589,0.65211 -0.98133,0.66863 -0.16754,0.10882 -0.68228,0.41592 -0.50924,0.31606 5.70582,-3.29295 5.72311,-3.29855 3.88347,-2.27317 -0.60177,0.33212 -1.22206,0.62724 -1.84745,0.91148 0,0 -4.48824,3.58487 -4.48824,3.58487 v 0 c 0.6159,-0.32541 1.26789,-0.56681 1.88137,-0.90054 2.68029,-1.49298 5.53358,-2.81656 7.82804,-4.88643 1.06668,-1.03343 2.13282,-2.07478 3.03396,-3.26031 1.53215,-1.94753 2.89388,-4.03616 3.64606,-6.42022 0.8605,-3.11326 1.43691,-6.2925 1.99964,-9.47117 0.44208,-3.18257 0.96077,-6.35773 1.23206,-9.56086 0.33792,-3.10713 0.65104,-6.21593 0.88039,-9.33337 0.27675,-3.22877 0.63834,-6.51953 2.02732,-9.48946 0.22808,-0.38251 0.43003,-0.78185 0.68424,-1.14752 0.23135,-0.33279 1.15048,-1.07781 0.76852,-0.94224 -1.40806,0.49977 -2.62856,1.42319 -3.97109,2.07895 -0.28418,0.13881 0.50274,-0.39331 0.79019,-0.52524 0.82182,-0.37719 0.94064,-0.22264 1.80113,-0.0768 0.34908,0.16786 0.71229,0.30906 1.04724,0.50359 1.76369,1.02426 3.12026,2.61136 4.00877,4.43161 0,0 4.98187,-2.86534 4.98187,-2.86534 z"
         id="path877"
         style="fill:#ff0066;fill-opacity:1;stroke-width:0.264999;stroke-linecap:round;stroke-miterlimit:4;stroke-dasharray:none;stop-color:#000000" />
    </g>
  </g>
</svg>
